<svg xmlns="http://www.w3.org/2000/svg" width="1072" height="564" viewBox="0 0 1072 564" font-family="-apple-system, BlinkMacSystemFont, Segoe UI, Roboto, Helvetica, Arial, sans-serif"><defs><filter id="nodeShadow" x="-20%" y="-20%" width="140%" height="140%"><feDropShadow dx="0" dy="2" stdDeviation="3" flood-opacity="0.08"/></filter><marker id="arrow" markerWidth="9" markerHeight="9" refX="8" refY="4.5" orient="auto"><path d="M0,0 L9,4.5 L0,9 z" fill="#b8b7b0"/></marker><marker id="arrow-cui" markerWidth="10" markerHeight="10" refX="9" refY="5" orient="auto"><path d="M0,0 L10,5 L0,10 z" fill="#0b0b0b"/></marker><marker id="arrow-spd" markerWidth="10" markerHeight="10" refX="9" refY="5" orient="auto"><path d="M0,0 L10,5 L0,10 z" fill="#2f6fb2"/></marker></defs><rect width="1072" height="564" fill="#f9f9f7"/><rect x="0" y="0" width="1072" height="56" fill="#0b0b0b"/><text x="24" y="34" font-size="18" font-weight="700" fill="#fcfcfb">CUI Flow Diagram</text><text x="24" y="50" font-size="11" fill="#fcfcfb" opacity="0.72">APM GCC High CUI Enclave · 32 CFR 170.19(c) asset categories · topology-driven</text><rect x="10" y="58" width="332" height="200" rx="14" fill="none" stroke="#0b0b0b" stroke-width="2" stroke-dasharray="10 6"/><text x="22" y="278" font-size="11" font-weight="700" fill="#0b0b0b">CMMC Assessment Scope</text><rect x="24" y="72" width="304" height="172" rx="12" fill="#f4f3ef" stroke="#e1e0d9" stroke-width="1"/><rect x="24" y="72" width="304" height="4" rx="12" fill="#0b0b0b"/><text x="38" y="98" font-size="12.5" font-weight="700" fill="#0b0b0b">EDS CUI Enclave<tspan fill="#898781" font-weight="500" font-size="11"></tspan></text><rect x="384" y="72" width="304" height="368" rx="12" fill="#f4f3ef" stroke="#e1e0d9" stroke-width="1"/><rect x="384" y="72" width="304" height="4" rx="12" fill="#2f6fb2"/><text x="398" y="98" font-size="12.5" font-weight="700" fill="#0b0b0b">Microsoft GCC High / Azure Gov<tspan fill="#898781" font-weight="500" font-size="11"> · FedRAMP authorization boundary</tspan></text><rect x="744" y="72" width="304" height="172" rx="12" fill="#f4f3ef" stroke="#e1e0d9" stroke-width="1"/><rect x="744" y="72" width="304" height="4" rx="12" fill="#e1e0d9"/><text x="758" y="98" font-size="12.5" font-weight="700" fill="#0b0b0b">External<tspan fill="#898781" font-weight="500" font-size="11"></tspan></text><path d="M 772 178.0 C 716.0 178.0, 716.0 178.0, 660 178.0" fill="none" stroke="#0b0b0b" stroke-width="2.6" marker-end="url(#arrow-cui)"/><path d="M 300 178.0 C 356.0 178.0, 356.0 178.0, 412 178.0" fill="none" stroke="#0b0b0b" stroke-width="2.6" marker-start="url(#arrow-cui)" marker-end="url(#arrow-cui)"/><path d="M 300 178.0 C 356.0 178.0, 356.0 276.0, 412 276.0" fill="none" stroke="#0b0b0b" stroke-width="2.6" marker-end="url(#arrow-cui)"/><path d="M 300 178.0 C 356.0 178.0, 356.0 374.0, 412 374.0" fill="none" stroke="#2f6fb2" stroke-width="2.0" stroke-dasharray="6 4" marker-end="url(#arrow-spd)"/><path d="M 660 178.0 C 712 178.0, 712 374.0, 660 374.0" fill="none" stroke="#2f6fb2" stroke-width="2.0" stroke-dasharray="6 4" marker-end="url(#arrow-spd)"/><g filter="url(#nodeShadow)"><rect x="52" y="140" width="248" height="76" rx="10" fill="#fcfcfb" stroke="#e1e0d9" stroke-width="1"/></g><rect x="52" y="140" width="4" height="76" rx="2" fill="#0ca30c"/><rect x="66" y="160.0" width="36" height="36" rx="8" fill="#e7f6e7"/><g transform="translate(66.0,160.0) scale(1.500)" color="#0ca30c"><rect x="6" y="7" width="12" height="8" rx="1" fill="none" stroke="currentColor" stroke-width="1.6"/><path d="M4 17h16" stroke="currentColor" stroke-width="1.6" stroke-linecap="round"/></g><text x="114" y="170" font-size="13" font-weight="650" fill="#0b0b0b">ENG laptops (12, Intune)</text><text x="114" y="190" font-size="11" fill="#52514e">CUI asset</text><g filter="url(#nodeShadow)"><rect x="412" y="140" width="248" height="76" rx="10" fill="#fcfcfb" stroke="#e1e0d9" stroke-width="1"/></g><rect x="412" y="140" width="4" height="76" rx="2" fill="#0ca30c"/><rect x="426" y="160.0" width="36" height="36" rx="8" fill="#e7f6e7"/><g transform="translate(426.0,160.0) scale(1.500)" color="#0ca30c"><ellipse cx="12" cy="7" rx="7" ry="2.5" fill="none" stroke="currentColor" stroke-width="1.6"/><path d="M5 7v8c0 1.4 3.1 2.5 7 2.5s7-1.1 7-2.5V7" fill="none" stroke="currentColor" stroke-width="1.6"/><path d="M5 11c0 1.4 3.1 2.5 7 2.5s7-1.1 7-2.5" fill="none" stroke="currentColor" stroke-width="1.6"/></g><line x1="420" y1="215" x2="652" y2="215" stroke="#0b0b0b" stroke-width="1.2" opacity="0.35"/><text x="474" y="170" font-size="13" font-weight="650" fill="#0b0b0b">GCC High tenant (EXO/SPO/Teams)</text><text x="474" y="190" font-size="11" fill="#52514e">CUI asset</text><g filter="url(#nodeShadow)"><rect x="412" y="238" width="248" height="76" rx="10" fill="#fcfcfb" stroke="#e1e0d9" stroke-width="1"/></g><rect x="412" y="238" width="4" height="76" rx="2" fill="#0ca30c"/><rect x="426" y="258.0" width="36" height="36" rx="8" fill="#e7f6e7"/><g transform="translate(426.0,258.0) scale(1.500)" color="#0ca30c"><ellipse cx="12" cy="7" rx="7" ry="2.5" fill="none" stroke="currentColor" stroke-width="1.6"/><path d="M5 7v8c0 1.4 3.1 2.5 7 2.5s7-1.1 7-2.5V7" fill="none" stroke="currentColor" stroke-width="1.6"/><path d="M5 11c0 1.4 3.1 2.5 7 2.5s7-1.1 7-2.5" fill="none" stroke="currentColor" stroke-width="1.6"/></g><line x1="420" y1="313" x2="652" y2="313" stroke="#0b0b0b" stroke-width="1.2" opacity="0.35"/><text x="474" y="268" font-size="13" font-weight="650" fill="#0b0b0b">Project file service (Azure Gov)</text><text x="474" y="288" font-size="11" fill="#52514e">CUI asset</text><g filter="url(#nodeShadow)"><rect x="412" y="336" width="248" height="76" rx="10" fill="#fcfcfb" stroke="#e1e0d9" stroke-width="1"/></g><rect x="412" y="336" width="4" height="76" rx="2" fill="#2f6fb2"/><rect x="426" y="356.0" width="36" height="36" rx="8" fill="#e8f0fa"/><g transform="translate(426.0,356.0) scale(1.500)" color="#2f6fb2"><path d="M12 3 5 6v5c0 4 3 6.5 7 9 4-2.5 7-5 7-9V6l-7-3Z" fill="none" stroke="currentColor" stroke-width="1.6" stroke-linejoin="round"/></g><text x="474" y="366" font-size="13" font-weight="650" fill="#0b0b0b">Microsoft Sentinel</text><text x="474" y="386" font-size="11" fill="#52514e">Security Protection</text><g filter="url(#nodeShadow)"><rect x="772" y="140" width="248" height="76" rx="10" fill="#fcfcfb" stroke="#e1e0d9" stroke-width="1"/></g><rect x="772" y="140" width="4" height="76" rx="2" fill="#898781"/><rect x="786" y="160.0" width="36" height="36" rx="8" fill="#efeeea"/><g transform="translate(786.0,160.0) scale(1.500)" color="#898781"><path d="M12 4a3 3 0 1 1 0 6 3 3 0 0 1 0-6Z" fill="none" stroke="currentColor" stroke-width="1.6"/><path d="M5 20v-1.5a5 5 0 0 1 10 0V20" fill="none" stroke="currentColor" stroke-width="1.6" stroke-linecap="round"/></g><text x="834" y="170" font-size="13" font-weight="650" fill="#0b0b0b">Prime contractor</text><text x="834" y="190" font-size="11" fill="#52514e">Out of scope</text><rect x="606.0" y="167.0" width="220" height="18" rx="4" fill="#fcfcfb" stroke="#e1e0d9" stroke-width="0.75"/><text x="716.0" y="180.0" font-size="10.5" text-anchor="middle" fill="#52514e" font-weight="500">CUI · encrypted email/SPO share</text><rect x="288.5" y="167.0" width="135" height="18" rx="4" fill="#fcfcfb" stroke="#e1e0d9" stroke-width="0.75"/><text x="356.0" y="180.0" font-size="10.5" text-anchor="middle" fill="#52514e" font-weight="500">CUI · HTTPS 443 ↔</text><rect x="271.0" y="216.0" width="170" height="18" rx="4" fill="#fcfcfb" stroke="#e1e0d9" stroke-width="0.75"/><text x="356.0" y="229.0" font-size="10.5" text-anchor="middle" fill="#52514e" font-weight="500">CUI · SMB over P2S VPN</text><rect x="278.0" y="265.0" width="156" height="18" rx="4" fill="#fcfcfb" stroke="#e1e0d9" stroke-width="0.75"/><text x="356.0" y="278.0" font-size="10.5" text-anchor="middle" fill="#52514e" font-weight="500">SPD · AMA agent logs</text><rect x="616.5" y="265.0" width="191" height="18" rx="4" fill="#fcfcfb" stroke="#e1e0d9" stroke-width="0.75"/><text x="712" y="278.0" font-size="10.5" text-anchor="middle" fill="#52514e" font-weight="500">SPD · audit log connector</text><rect x="20" y="452" width="1032" height="72" rx="10" fill="#f4f3ef" stroke="#e1e0d9" stroke-width="1"/><text x="36" y="472" font-size="10" font-weight="700" fill="#898781" letter-spacing="0.06em">ASSET CATEGORIES</text><rect x="36" y="480" width="10" height="10" rx="2" fill="#0ca30c"/><text x="52" y="489" font-size="10.5" fill="#52514e">CUI asset</text><rect x="123.80000000000001" y="480" width="10" height="10" rx="2" fill="#2f6fb2"/><text x="139.8" y="489" font-size="10.5" fill="#52514e">Security Protection</text><rect x="273.6" y="480" width="10" height="10" rx="2" fill="#b28419"/><text x="289.6" y="489" font-size="10.5" fill="#52514e">Contractor Risk Managed</text><rect x="448.20000000000005" y="480" width="10" height="10" rx="2" fill="#ec835a"/><text x="464.20000000000005" y="489" font-size="10.5" fill="#52514e">Specialized</text><rect x="548.4000000000001" y="480" width="10" height="10" rx="2" fill="#898781"/><text x="564.4000000000001" y="489" font-size="10.5" fill="#52514e">Out of scope</text><text x="36" y="510" font-size="10" font-weight="700" fill="#898781" letter-spacing="0.06em">FLOWS</text><line x1="36" y1="524" x2="64" y2="524" stroke="#0b0b0b" stroke-width="2.2"/><text x="72" y="528" font-size="10.5" fill="#52514e">CUI / FCI</text><line x1="166" y1="524" x2="194" y2="524" stroke="#2f6fb2" stroke-width="2.2" stroke-dasharray="4 3"/><text x="202" y="528" font-size="10.5" fill="#52514e">Security Protection Data</text><line x1="386" y1="524" x2="414" y2="524" stroke="#b8b7b0" stroke-width="2.2"/><text x="422" y="528" font-size="10.5" fill="#52514e">Other / out of scope path</text><text x="1048" y="528" font-size="9.5" text-anchor="end" fill="#898781">Generic glyphs only · no vendor logos</text><text x="24" y="554" font-size="10" fill="#898781">Generated from program-data topology · CUI Flow Diagram · regenerate after every boundary or flow change · license-safe glyphs</text></svg>