<svg xmlns="http://www.w3.org/2000/svg" width="1188" height="392" viewBox="0 0 1188 392" font-family="-apple-system, Segoe UI, Roboto, Helvetica, Arial, sans-serif"><defs><marker id="arrow" markerWidth="9" markerHeight="9" refX="8" refY="4.5" orient="auto"><path d="M0,0 L9,4.5 L0,9 z" fill="#898781"/></marker><marker id="arrow-cui" markerWidth="10" markerHeight="10" refX="9" refY="5" orient="auto"><path d="M0,0 L10,5 L0,10 z" fill="#0b0b0b"/></marker></defs><rect width="1188" height="392" fill="#fcfcfb"/><rect x="10" y="10" width="262" height="248" rx="12" fill="none" stroke="#0b0b0b" stroke-width="1.6" stroke-dasharray="8 5"/><text x="20" y="276" font-size="11.5" font-weight="600" fill="#0b0b0b">CMMC Assessment Scope</text><rect x="20" y="20" width="242" height="228" rx="8" fill="#f4f3ef" stroke="#c9c8c0" stroke-width="1"/><text x="32" y="42" font-size="12" font-weight="650" fill="#0b0b0b">EDS CUI Enclave<tspan fill="#898781" font-weight="400"></tspan></text><rect x="322" y="20" width="242" height="312" rx="8" fill="#f4f3ef" stroke="#c9c8c0" stroke-width="1"/><text x="334" y="42" font-size="12" font-weight="650" fill="#0b0b0b">Microsoft GCC High / Azure Gov<tspan fill="#898781" font-weight="400"> · FedRAMP</tspan></text><rect x="624" y="20" width="242" height="144" rx="8" fill="#f4f3ef" stroke="#c9c8c0" stroke-width="1"/><text x="636" y="42" font-size="12" font-weight="650" fill="#0b0b0b">Corporate IT (commercial M365)<tspan fill="#898781" font-weight="400"></tspan></text><rect x="926" y="20" width="242" height="144" rx="8" fill="#f4f3ef" stroke="#c9c8c0" stroke-width="1"/><text x="938" y="42" font-size="12" font-weight="650" fill="#0b0b0b">External<tspan fill="#898781" font-weight="400"></tspan></text><path d="M 952 109.0 C 745.0 109.0, 745.0 109.0, 538 109.0" fill="none" stroke="#0b0b0b" stroke-width="2.4" marker-end="url(#arrow-cui)"/><path d="M 236 109.0 C 292.0 109.0, 292.0 109.0, 348 109.0" fill="none" stroke="#0b0b0b" stroke-width="2.4" marker-end="url(#arrow-cui)"/><path d="M 236 109.0 C 292.0 109.0, 292.0 193.0, 348 193.0" fill="none" stroke="#0b0b0b" stroke-width="2.4" marker-end="url(#arrow-cui)"/><path d="M 236 109.0 C 292.0 109.0, 292.0 277.0, 348 277.0" fill="none" stroke="#898781" stroke-width="1.4" marker-end="url(#arrow)"/><path d="M 538 109.0 C 584 109.0, 584 277.0, 538 277.0" fill="none" stroke="#898781" stroke-width="1.4" marker-end="url(#arrow)"/><path d="M 650 109.0 C 443.0 109.0, 443.0 109.0, 236 109.0" fill="none" stroke="#898781" stroke-width="1.4" marker-end="url(#arrow)"/><rect x="46" y="80" width="190" height="58" rx="10" fill="#fcfcfb" stroke="#c9c8c0" stroke-width="1"/><rect x="46" y="80" width="4" height="58" fill="#0ca30c"/><text x="60" y="104" font-size="13" font-weight="600" fill="#0b0b0b">ENG laptops (12, Intune)</text><text x="60" y="123" font-size="11" fill="#52514e">CUI asset</text><rect x="46" y="164" width="190" height="58" rx="10" fill="#fcfcfb" stroke="#c9c8c0" stroke-width="1"/><rect x="46" y="164" width="4" height="58" fill="#ec835a"/><text x="60" y="188" font-size="13" font-weight="600" fill="#0b0b0b">CNC-07 (isolated VLAN)</text><text x="60" y="207" font-size="11" fill="#52514e">Specialized</text><rect x="348" y="80" width="190" height="58" fill="#fcfcfb"/><line x1="348" y1="80" x2="538" y2="80" stroke="#0b0b0b" stroke-width="1.4"/><line x1="348" y1="138" x2="538" y2="138" stroke="#0b0b0b" stroke-width="1.4"/><rect x="348" y="80" width="4" height="58" fill="#0ca30c"/><text x="362" y="104" font-size="13" font-weight="600" fill="#0b0b0b">GCC High tenant (EXO/SPO/Teams)</text><text x="362" y="123" font-size="11" fill="#52514e">CUI asset</text><rect x="348" y="164" width="190" height="58" fill="#fcfcfb"/><line x1="348" y1="164" x2="538" y2="164" stroke="#0b0b0b" stroke-width="1.4"/><line x1="348" y1="222" x2="538" y2="222" stroke="#0b0b0b" stroke-width="1.4"/><rect x="348" y="164" width="4" height="58" fill="#0ca30c"/><text x="362" y="188" font-size="13" font-weight="600" fill="#0b0b0b">Project file service (Azure Gov)</text><text x="362" y="207" font-size="11" fill="#52514e">CUI asset</text><rect x="348" y="248" width="190" height="58" rx="10" fill="#fcfcfb" stroke="#c9c8c0" stroke-width="1"/><rect x="348" y="248" width="4" height="58" fill="#2f6fb2"/><text x="362" y="272" font-size="13" font-weight="600" fill="#0b0b0b">Microsoft Sentinel</text><text x="362" y="291" font-size="11" fill="#52514e">Security Protection</text><rect x="650" y="80" width="190" height="58" rx="10" fill="#fcfcfb" stroke="#c9c8c0" stroke-width="1"/><rect x="650" y="80" width="4" height="58" fill="#898781"/><text x="664" y="104" font-size="13" font-weight="600" fill="#0b0b0b">Corporate M365 (no CUI)</text><text x="664" y="123" font-size="11" fill="#52514e">Out of scope</text><rect x="952" y="80" width="190" height="58" rx="0" fill="#fcfcfb" stroke="#c9c8c0" stroke-width="1"/><rect x="952" y="80" width="4" height="58" fill="#898781"/><text x="966" y="104" font-size="13" font-weight="600" fill="#0b0b0b">Prime contractor</text><text x="966" y="123" font-size="11" fill="#52514e">Out of scope</text><rect x="638.5" y="99.0" width="213" height="16" fill="#fcfcfb" opacity="0.92" stroke="#c9c8c0" stroke-width="0.5"/><text x="745.0" y="111.0" font-size="10.5" text-anchor="middle" fill="#52514e">CUI encrypted email/SPO share</text><rect x="241.5" y="99.0" width="101" height="16" fill="#fcfcfb" opacity="0.92" stroke="#c9c8c0" stroke-width="0.5"/><text x="292.0" y="111.0" font-size="10.5" text-anchor="middle" fill="#52514e">CUI HTTPS 443</text><text x="292.0" y="123.0" font-size="9" text-anchor="middle" fill="#898781">(bidirectional)</text><rect x="217.0" y="141.0" width="150" height="16" fill="#fcfcfb" opacity="0.92" stroke="#c9c8c0" stroke-width="0.5"/><text x="292.0" y="153.0" font-size="10.5" text-anchor="middle" fill="#52514e">CUI SMB over P2S VPN</text><rect x="224.0" y="183.0" width="136" height="16" fill="#fcfcfb" opacity="0.92" stroke="#c9c8c0" stroke-width="0.5"/><text x="292.0" y="195.0" font-size="10.5" text-anchor="middle" fill="#52514e">SPD AMA agent logs</text><rect x="498.5" y="183.0" width="171" height="16" fill="#fcfcfb" opacity="0.92" stroke="#c9c8c0" stroke-width="0.5"/><text x="584" y="195.0" font-size="10.5" text-anchor="middle" fill="#52514e">SPD audit log connector</text><rect x="392.5" y="99.0" width="101" height="16" fill="#fcfcfb" opacity="0.92" stroke="#c9c8c0" stroke-width="0.5"/><text x="443.0" y="111.0" font-size="10.5" text-anchor="middle" fill="#52514e">calendar only</text><text x="443.0" y="123.0" font-size="9" text-anchor="middle" fill="#898781">(bidirectional)</text><text x="20" y="380" font-size="10.5" fill="#898781">APM GCC High CUI Enclave · Network Diagram · generated from program data; keep synchronized with the SSP</text></svg>